<svg xmlns="http://www.w3.org/2000/svg" viewBox="0 0 64 64" width="64" height="64">
  <defs>
    <linearGradient id="bone" x1="0" x2="0" y1="0" y2="1">
      <stop offset="0" stop-color="#f4eee2"/>
      <stop offset="1" stop-color="#8a8377"/>
    </linearGradient>
    <linearGradient id="cloth" x1="0" x2="1" y1="0" y2="1">
      <stop offset="0" stop-color="#e45745"/>
      <stop offset=".55" stop-color="#9b1d1a"/>
      <stop offset="1" stop-color="#3b0708"/>
    </linearGradient>
    <radialGradient id="eye" cx=".5" cy=".5" r=".5">
      <stop offset="0" stop-color="#ff604c"/>
      <stop offset=".6" stop-color="#7a0c08"/>
      <stop offset="1" stop-color="#000"/>
    </radialGradient>
  </defs>
  <path d="M32 4 C14 4 8 18 8 30 C8 38 12 44 16 48 L16 56 L24 56 L24 50 L40 50 L40 56 L48 56 L48 48 C52 44 56 38 56 30 C56 18 50 4 32 4 Z" fill="url(#bone)" stroke="#080a10" stroke-width="2" stroke-linejoin="round"/>
  <path d="M10 22 C18 12 28 10 38 12 C44 13 50 16 55 21 L52 29 C45 23 36 20 26 22 C20 23 15 26 10 31 Z" fill="url(#cloth)" stroke="#080a10" stroke-width="1.6" stroke-linejoin="round"/>
  <path d="M47 19 L59 12 L55 27 Z" fill="url(#cloth)" stroke="#080a10" stroke-width="1.5" stroke-linejoin="round"/>
  <circle cx="22" cy="20" r="1.5" fill="#f3d27a" opacity=".8"/>
  <circle cx="31" cy="18" r="1.3" fill="#f3d27a" opacity=".75"/>
  <path d="M22 8 L26 14 L22 18 M40 6 L38 12 L42 16" fill="none" stroke="#080a10" stroke-width="1" opacity=".45"/>
  <ellipse cx="22" cy="31" rx="6.5" ry="7.5" fill="#080a10"/>
  <ellipse cx="42" cy="31" rx="6.5" ry="7.5" fill="#080a10"/>
  <circle cx="22" cy="32" r="3" fill="url(#eye)"/>
  <circle cx="42" cy="32" r="3" fill="url(#eye)"/>
  <polygon points="32,38 28,44 32,46 36,44" fill="#080a10"/>
  <path d="M22 49 L42 49" stroke="#080a10" stroke-width="3" stroke-linecap="round"/>
  <rect x="24" y="49" width="2" height="6" fill="#e8e0cf"/>
  <rect x="28" y="49" width="2" height="6" fill="#e8e0cf"/>
  <rect x="32" y="49" width="2" height="6" fill="#e8e0cf"/>
  <rect x="36" y="49" width="2" height="6" fill="#e8e0cf"/>
  <rect x="40" y="49" width="2" height="6" fill="#e8e0cf"/>
</svg>
