<svg xmlns="http://www.w3.org/2000/svg" viewBox="0 0 64 64" width="64" height="64">
  <defs>
    <radialGradient id="coin" cx=".4" cy=".35" r=".75">
      <stop offset="0" stop-color="#fff7d4"/>
      <stop offset=".5" stop-color="#f3d27a"/>
      <stop offset="1" stop-color="#8a6a2a"/>
    </radialGradient>
  </defs>
  <circle cx="32" cy="32" r="26" fill="url(#coin)" stroke="#080a10" stroke-width="2"/>
  <circle cx="32" cy="32" r="20" fill="none" stroke="#7a5d2a" stroke-width="1.4" opacity=".85"/>
  <rect x="31" y="2" width="2" height="4" fill="#7a5d2a"/>
  <rect x="31" y="2" width="2" height="4" fill="#7a5d2a" transform="rotate(30 32 32)"/>
  <rect x="31" y="2" width="2" height="4" fill="#7a5d2a" transform="rotate(60 32 32)"/>
  <rect x="31" y="2" width="2" height="4" fill="#7a5d2a" transform="rotate(90 32 32)"/>
  <rect x="31" y="2" width="2" height="4" fill="#7a5d2a" transform="rotate(120 32 32)"/>
  <rect x="31" y="2" width="2" height="4" fill="#7a5d2a" transform="rotate(150 32 32)"/>
  <rect x="31" y="2" width="2" height="4" fill="#7a5d2a" transform="rotate(180 32 32)"/>
  <rect x="31" y="2" width="2" height="4" fill="#7a5d2a" transform="rotate(210 32 32)"/>
  <rect x="31" y="2" width="2" height="4" fill="#7a5d2a" transform="rotate(240 32 32)"/>
  <rect x="31" y="2" width="2" height="4" fill="#7a5d2a" transform="rotate(270 32 32)"/>
  <rect x="31" y="2" width="2" height="4" fill="#7a5d2a" transform="rotate(300 32 32)"/>
  <rect x="31" y="2" width="2" height="4" fill="#7a5d2a" transform="rotate(330 32 32)"/>
  <polygon points="32,16 35.4,26.2 46,26.2 37.3,32.6 40.7,42.8 32,36.4 23.3,42.8 26.7,32.6 18,26.2 28.6,26.2" fill="#3b2a0a"/>
  <path d="M16 22 Q20 14 30 12" fill="none" stroke="#fff" stroke-width="2" opacity=".55" stroke-linecap="round"/>
</svg>
