<svg xmlns="http://www.w3.org/2000/svg" viewBox="0 0 64 64" width="64" height="64">
  <g stroke="#1a1a1a" stroke-width="2" stroke-linejoin="round">
    <!-- cranium -->
    <path d="M32 6
             C 14 6, 8 20, 8 32
             C 8 40, 12 46, 16 50
             L 16 58 L 24 58 L 24 52
             L 40 52 L 40 58 L 48 58 L 48 50
             C 52 46, 56 40, 56 32
             C 56 20, 50 6, 32 6 Z"
          fill="#ffffff" />
    <!-- eye sockets -->
    <ellipse cx="22" cy="30" rx="6" ry="7" fill="#1a1a1a" stroke="none" />
    <ellipse cx="42" cy="30" rx="6" ry="7" fill="#1a1a1a" stroke="none" />
    <!-- nose -->
    <polygon points="32,38 28,44 32,46 36,44" fill="#1a1a1a" stroke="none" />
    <!-- teeth -->
    <rect x="22" y="50" width="20" height="3" fill="#1a1a1a" stroke="none" />
    <rect x="26" y="50" width="2" height="6" fill="#ffffff" stroke="none" />
    <rect x="30" y="50" width="2" height="6" fill="#ffffff" stroke="none" />
    <rect x="34" y="50" width="2" height="6" fill="#ffffff" stroke="none" />
    <rect x="38" y="50" width="2" height="6" fill="#ffffff" stroke="none" />
  </g>
</svg>
